<svg width="26" height="26" viewBox="0 0 26 26" fill="none" xmlns="http://www.w3.org/2000/svg">
<g clip-path="url(#clip0_35_1257)">
<path d="M7.5792 25.5131C7.07433 25.1721 6.62687 24.7507 6.25402 24.2651C5.8439 23.764 5.4639 23.2381 5.1161 22.6905C4.29994 21.4765 3.65988 20.1497 3.21556 18.7507C2.68181 17.1257 2.42334 15.5681 2.42334 14.0447C2.42334 12.3433 2.78584 10.8581 3.49484 9.61009C4.02041 8.63463 4.79314 7.81948 5.73308 7.24896C6.64398 6.6745 7.69062 6.36013 8.76273 6.33896C9.13804 6.33896 9.54215 6.39421 9.97108 6.49984C10.2792 6.5884 10.6545 6.72815 11.113 6.90202C11.6964 7.13034 12.0173 7.27009 12.1261 7.30421C12.4678 7.43096 12.7551 7.48621 12.9807 7.48621C13.152 7.48621 13.3936 7.43096 13.6681 7.34646C13.8226 7.29121 14.1138 7.19371 14.5308 7.01252C14.9437 6.85977 15.2686 6.72896 15.527 6.63146C15.9232 6.51284 16.3065 6.40315 16.6482 6.3479C17.0532 6.28306 17.4643 6.26588 17.8733 6.29671C18.582 6.34374 19.2801 6.49622 19.9451 6.74927C21.0326 7.19371 21.9121 7.88759 22.5666 8.87396C22.29 9.0471 22.0303 9.24681 21.7912 9.47034C21.2708 9.93881 20.8274 10.4888 20.478 11.0994C20.0214 11.9339 19.7846 12.8739 19.7907 13.8286C19.8075 15.001 20.1035 16.0337 20.6869 16.9266C21.1158 17.5884 21.6732 18.1544 22.325 18.5898C22.6587 18.8181 22.9459 18.975 23.2212 19.0806C23.0924 19.4868 22.9547 19.8801 22.7923 20.2701C22.4239 21.1447 21.9774 21.9831 21.4583 22.775C20.9958 23.4567 20.6333 23.9645 20.358 24.3025C19.9291 24.8185 19.5162 25.2125 19.0993 25.4871C18.6407 25.7959 18.099 25.9608 17.5484 25.9608C17.1756 25.9754 16.8028 25.9296 16.4441 25.8251C16.136 25.7195 15.8311 25.605 15.531 25.4741C15.2191 25.3287 14.8974 25.2057 14.5684 25.1061C13.7551 24.894 12.9024 24.8926 12.0885 25.102C11.7548 25.1995 11.4339 25.3133 11.117 25.453C10.6713 25.6431 10.3752 25.7707 10.2039 25.8251C9.86224 25.9267 9.50774 25.9901 9.14924 26.0112C8.59469 26.0112 8.07774 25.8503 7.56559 25.5245L7.5792 25.5131ZM14.8933 5.51346C14.1683 5.88152 13.4761 6.03834 12.7887 5.98715C12.6806 5.28434 12.7887 4.56527 13.076 3.77796C13.3205 3.11095 13.6819 2.49436 14.1427 1.95796C14.6292 1.39329 15.2196 0.930454 15.8807 0.595398C16.5849 0.227336 17.2563 0.0282734 17.8981 -0.000976562C17.9813 0.735148 17.8981 1.45909 17.6316 2.24152C17.385 2.93319 17.0243 3.57722 16.5649 4.14602C16.0961 4.71147 15.5206 5.1761 14.8725 5.51265L14.8933 5.51346Z" fill="black"/>
</g>
<defs>
<clipPath id="clip0_35_1257">
<rect width="25.6073" height="26" fill="white" transform="translate(0.0268555)"/>
</clipPath>
</defs>
</svg>
