<svg width="26" height="26" viewBox="0 0 26 26" fill="none" xmlns="http://www.w3.org/2000/svg">
<path d="M24.5652 26C24.3754 26.0004 24.1874 25.9633 24.0121 25.8907C23.8367 25.818 23.6774 25.7113 23.5436 25.5768L18.6306 20.6729C16.614 22.2553 14.1239 23.114 11.5601 23.1111C9.27374 23.1111 7.0387 22.4334 5.13766 21.1637C3.23661 19.8939 1.75493 18.0892 0.879969 15.9777C0.00501326 13.8662 -0.22392 11.5427 0.222127 9.30118C0.668173 7.05962 1.76917 5.00062 3.38588 3.38455C5.00259 1.76848 7.0624 0.66791 9.30485 0.222039C11.5472 -0.223832 13.8717 0.00501128 15.984 0.879622C18.0963 1.75423 19.9017 3.23534 21.1721 5.13563C22.4422 7.03593 23.1202 9.27008 23.1202 11.5556C23.1254 14.1218 22.2662 16.6149 20.681 18.6333L25.5869 23.5444C25.7854 23.747 25.9201 24.0035 25.9738 24.2818C26.0276 24.5603 25.9981 24.8485 25.8892 25.1102C25.7802 25.3721 25.5965 25.5961 25.3612 25.7543C25.1258 25.9126 24.8489 25.998 24.5652 26ZM11.5601 2.88889C9.84534 2.88889 8.16907 3.39719 6.74327 4.34949C5.31749 5.30179 4.20622 6.65535 3.55001 8.23897C2.89378 9.8226 2.72209 11.5652 3.05662 13.2463C3.39116 14.9275 4.21691 16.4717 5.42944 17.6838C6.64198 18.8959 8.18684 19.7213 9.86866 20.0557C11.5504 20.3901 13.2937 20.2185 14.878 19.5625C16.4623 18.9066 17.8163 17.7957 18.769 16.3705C19.7217 14.9452 20.2302 13.2697 20.2302 11.5556C20.2276 9.25783 19.3132 7.055 17.6878 5.43026C16.0625 3.80552 13.8587 2.89157 11.5601 2.88889Z" fill="#319E42"/>
</svg>
