<svg width="28" height="28" viewBox="0 0 28 28" fill="none" xmlns="http://www.w3.org/2000/svg">
<path fill-rule="evenodd" clip-rule="evenodd" d="M7.53846 0C8.13323 0 8.61539 0.48216 8.61539 1.07692V2.15385H19.3846V1.07692C19.3846 0.48216 19.8669 0 20.4615 0C21.0562 0 21.5385 0.48216 21.5385 1.07692V2.15385H24.7692C26.5535 2.15385 28 3.6003 28 5.38462V24.7692C28 26.5535 26.5535 28 24.7692 28H3.23077C1.44646 28 0 26.5535 0 24.7692V5.38462C0 3.6003 1.44646 2.15385 3.23077 2.15385H6.46154V1.07692C6.46154 0.48216 6.9437 0 7.53846 0ZM19.3846 4.30769V5.38462C19.3846 5.97938 19.8669 6.46154 20.4615 6.46154C21.0562 6.46154 21.5385 5.97938 21.5385 5.38462V4.30769H24.7692C25.3639 4.30769 25.8462 4.78985 25.8462 5.38462V8.61539H2.15385V5.38462C2.15385 4.78985 2.63601 4.30769 3.23077 4.30769H6.46154V5.38462C6.46154 5.97938 6.9437 6.46154 7.53846 6.46154C8.13323 6.46154 8.61539 5.97938 8.61539 5.38462V4.30769H19.3846ZM2.15385 10.7692V24.7692C2.15385 25.3639 2.63601 25.8462 3.23077 25.8462H24.7692C25.3639 25.8462 25.8462 25.3639 25.8462 24.7692V10.7692H2.15385ZM12.9231 14C12.9231 13.4052 13.4052 12.9231 14 12.9231C14.5948 12.9231 15.0769 13.4052 15.0769 14C15.0769 14.5948 14.5948 15.0769 14 15.0769C13.4052 15.0769 12.9231 14.5948 12.9231 14ZM18.3077 12.9231C17.7129 12.9231 17.2308 13.4052 17.2308 14C17.2308 14.5948 17.7129 15.0769 18.3077 15.0769C18.9025 15.0769 19.3846 14.5948 19.3846 14C19.3846 13.4052 18.9025 12.9231 18.3077 12.9231ZM21.5385 14C21.5385 13.4052 22.0207 12.9231 22.6154 12.9231C23.2101 12.9231 23.6923 13.4052 23.6923 14C23.6923 14.5948 23.2101 15.0769 22.6154 15.0769C22.0207 15.0769 21.5385 14.5948 21.5385 14ZM22.6154 17.2308C22.0207 17.2308 21.5385 17.7129 21.5385 18.3077C21.5385 18.9025 22.0207 19.3846 22.6154 19.3846C23.2101 19.3846 23.6923 18.9025 23.6923 18.3077C23.6923 17.7129 23.2101 17.2308 22.6154 17.2308ZM17.2308 18.3077C17.2308 17.7129 17.7129 17.2308 18.3077 17.2308C18.9025 17.2308 19.3846 17.7129 19.3846 18.3077C19.3846 18.9025 18.9025 19.3846 18.3077 19.3846C17.7129 19.3846 17.2308 18.9025 17.2308 18.3077ZM14 17.2308C13.4052 17.2308 12.9231 17.7129 12.9231 18.3077C12.9231 18.9025 13.4052 19.3846 14 19.3846C14.5948 19.3846 15.0769 18.9025 15.0769 18.3077C15.0769 17.7129 14.5948 17.2308 14 17.2308ZM8.61539 18.3077C8.61539 17.7129 9.09754 17.2308 9.69231 17.2308C10.2871 17.2308 10.7692 17.7129 10.7692 18.3077C10.7692 18.9025 10.2871 19.3846 9.69231 19.3846C9.09754 19.3846 8.61539 18.9025 8.61539 18.3077ZM5.38462 17.2308C4.78985 17.2308 4.30769 17.7129 4.30769 18.3077C4.30769 18.9025 4.78985 19.3846 5.38462 19.3846C5.97938 19.3846 6.46154 18.9025 6.46154 18.3077C6.46154 17.7129 5.97938 17.2308 5.38462 17.2308ZM4.30769 22.6154C4.30769 22.0207 4.78985 21.5385 5.38462 21.5385C5.97938 21.5385 6.46154 22.0207 6.46154 22.6154C6.46154 23.2101 5.97938 23.6923 5.38462 23.6923C4.78985 23.6923 4.30769 23.2101 4.30769 22.6154ZM9.69231 21.5385C9.09754 21.5385 8.61539 22.0207 8.61539 22.6154C8.61539 23.2101 9.09754 23.6923 9.69231 23.6923C10.2871 23.6923 10.7692 23.2101 10.7692 22.6154C10.7692 22.0207 10.2871 21.5385 9.69231 21.5385ZM12.9231 22.6154C12.9231 22.0207 13.4052 21.5385 14 21.5385C14.5948 21.5385 15.0769 22.0207 15.0769 22.6154C15.0769 23.2101 14.5948 23.6923 14 23.6923C13.4052 23.6923 12.9231 23.2101 12.9231 22.6154ZM18.3077 21.5385C17.7129 21.5385 17.2308 22.0207 17.2308 22.6154C17.2308 23.2101 17.7129 23.6923 18.3077 23.6923C18.9025 23.6923 19.3846 23.2101 19.3846 22.6154C19.3846 22.0207 18.9025 21.5385 18.3077 21.5385Z" fill="#319E42"/>
</svg>
