<svg width="24" height="29" viewBox="0 0 24 29" fill="none" xmlns="http://www.w3.org/2000/svg">
<path d="M11.9799 28.2099C11.8483 28.2106 11.7178 28.1854 11.596 28.1357C11.4741 28.0859 11.3633 28.0126 11.2699 27.9199L3.65988 20.2999C2.52162 19.2176 1.61147 17.9185 0.983077 16.4791C0.354681 15.0396 0.0207417 13.4889 0.000935903 11.9184C-0.0188699 10.3479 0.275858 8.78931 0.867755 7.33447C1.45965 5.87962 2.33674 4.55796 3.44735 3.44735C4.55796 2.33674 5.87963 1.45965 7.33447 0.867755C8.78931 0.275858 10.3479 -0.0188699 11.9184 0.000935903C13.4889 0.0207417 15.0396 0.354681 16.4791 0.983077C17.9185 1.61147 19.2176 2.52162 20.2999 3.65988C21.3932 4.75206 22.2606 6.04903 22.8524 7.47663C23.4441 8.90424 23.7487 10.4345 23.7487 11.9799C23.7487 13.5253 23.4441 15.0555 22.8524 16.4831C22.2606 17.9107 21.3932 19.2077 20.2999 20.2999L12.6899 27.9199C12.5964 28.0126 12.4856 28.0859 12.3638 28.1357C12.242 28.1854 12.1115 28.2106 11.9799 28.2099ZM11.9799 2.20988C10.0471 2.20926 8.15756 2.78193 6.55032 3.85542C4.94308 4.92892 3.69035 6.45502 2.95062 8.24064C2.21089 10.0263 2.01741 11.9912 2.39465 13.8868C2.77188 15.7824 3.70289 17.5235 5.06988 18.8899L11.9799 25.7999L18.8899 18.8899C20.2569 17.5235 21.1879 15.7824 21.5651 13.8868C21.9424 11.9912 21.7489 10.0263 21.0091 8.24064C20.2694 6.45502 19.0167 4.92892 17.4094 3.85542C15.8022 2.78193 13.9127 2.20926 11.9799 2.20988Z" fill="#319E42"/>
<path d="M11.98 16.21C10.9911 16.21 10.0244 15.9167 9.20213 15.3673C8.37989 14.8179 7.73902 14.037 7.36059 13.1234C6.98215 12.2098 6.88313 11.2044 7.07606 10.2345C7.26898 9.26461 7.74519 8.37369 8.44445 7.67443C9.14371 6.97517 10.0346 6.49896 11.0045 6.30604C11.9744 6.11311 12.9798 6.21213 13.8934 6.59057C14.807 6.969 15.5879 7.60987 16.1373 8.43211C16.6867 9.25436 16.98 10.2211 16.98 11.21C16.98 12.536 16.4532 13.8078 15.5155 14.7455C14.5778 15.6832 13.3061 16.21 11.98 16.21ZM11.98 8.20996C11.3866 8.20996 10.8066 8.38591 10.3133 8.71555C9.81992 9.0452 9.43541 9.51373 9.20834 10.0619C8.98128 10.6101 8.92187 11.2133 9.03763 11.7952C9.15338 12.3772 9.4391 12.9117 9.85866 13.3313C10.2782 13.7508 10.8128 14.0366 11.3947 14.1523C11.9767 14.2681 12.5799 14.2087 13.128 13.9816C13.6762 13.7545 14.1447 13.37 14.4744 12.8767C14.804 12.3833 14.98 11.8033 14.98 11.21C14.98 10.4143 14.6639 9.65125 14.1013 9.08864C13.5387 8.52603 12.7756 8.20996 11.98 8.20996Z" fill="#319E42"/>
</svg>
