<svg width="19" height="33" viewBox="0 0 19 33" fill="none" xmlns="http://www.w3.org/2000/svg">
<path d="M9.36814 31.7309C11.2683 31.7309 12.8086 30.1906 12.8086 28.2905C12.8086 26.3904 11.2683 24.8501 9.36814 24.8501C7.46805 24.8501 5.92773 26.3904 5.92773 28.2905C5.92773 30.1906 7.46805 31.7309 9.36814 31.7309Z" fill="#323232"/>
<path fill-rule="evenodd" clip-rule="evenodd" d="M9.36761 25.6963C7.93485 25.6963 6.77336 26.8578 6.77336 28.2905C6.77336 29.7233 7.93485 30.8848 9.36761 30.8848C10.8004 30.8848 11.9618 29.7233 11.9618 28.2905C11.9618 26.8578 10.8004 25.6963 9.36761 25.6963ZM5.08105 28.2905C5.08105 25.9231 7.00021 24.0039 9.36761 24.0039C11.735 24.0039 13.6542 25.9231 13.6542 28.2905C13.6542 30.6579 11.735 32.5771 9.36761 32.5771C7.00021 32.5771 5.08105 30.6579 5.08105 28.2905Z" fill="#FDFDFD"/>
<path fill-rule="evenodd" clip-rule="evenodd" d="M8.53369 17.8901H10.0681V27.683H8.53369V17.8901Z" fill="#323232"/>
<path d="M9.36839 18.3134C14.3086 18.3134 18.3134 14.3086 18.3134 9.36839C18.3134 4.42818 14.3086 0.42334 9.36839 0.42334C4.42818 0.42334 0.42334 4.42818 0.42334 9.36839C0.42334 14.3086 4.42818 18.3134 9.36839 18.3134Z" fill="#319E42"/>
<path fill-rule="evenodd" clip-rule="evenodd" d="M9.36813 0.846102C4.66157 0.846102 0.846151 4.66153 0.846151 9.36809C0.846151 14.0746 4.66157 17.8901 9.36813 17.8901C14.0747 17.8901 17.8901 14.0746 17.8901 9.36809C17.8901 4.66153 14.0747 0.846102 9.36813 0.846102ZM0 9.36814C0 4.19426 4.19426 0 9.36813 0C14.542 0 18.7363 4.19426 18.7363 9.36814C18.7363 14.5421 14.542 18.7362 9.36813 18.7362C4.19426 18.7362 0 14.5421 0 9.36814Z" fill="#319E42"/>
<path d="M9.36853 12.1204C10.8886 12.1204 12.1209 10.8881 12.1209 9.36804C12.1209 7.84798 10.8886 6.61572 9.36853 6.61572C7.84846 6.61572 6.61621 7.84798 6.61621 9.36804C6.61621 10.8881 7.84846 12.1204 9.36853 12.1204Z" fill="#F9FFFF"/>
</svg>
