<svg width="86" height="80" viewBox="0 0 86 80" fill="none" xmlns="http://www.w3.org/2000/svg">
<g clip-path="url(#clip0_35_838)">
<path fill-rule="evenodd" clip-rule="evenodd" d="M18.9268 8.30077C19.8809 7.56372 20.7157 6.9475 21.4313 6.47627C22.3377 5.87213 23.2083 5.35257 24.0431 4.89342C33.596 -0.398827 44.3773 -1.2567 54.0733 1.63108C63.7694 4.51886 72.3682 11.1523 77.5918 20.8427C78.7487 22.9813 79.7147 25.2771 80.4899 27.7057C81.1339 29.7356 81.6229 31.7897 81.933 33.8437L85.9998 33.2154L75.8983 50.4092L64.0437 36.6349L66.3573 36.2724C66.1665 35.0158 65.8803 33.8075 65.5106 32.6355C65.0693 31.2701 64.4849 29.8806 63.7336 28.4911C60.597 22.6672 55.4329 18.6919 49.6129 16.952C43.7929 15.2242 37.3289 15.7317 31.5805 18.9094C30.9722 19.2478 30.4356 19.5619 29.9704 19.8761C29.3145 20.311 28.8136 20.6614 28.4677 20.9393L18.9268 8.30077Z" fill="#B1CC33"/>
<path fill-rule="evenodd" clip-rule="evenodd" d="M51.2708 13.871L33.1668 5.88428L34.0374 8.97747C32.153 9.52119 30.376 10.222 28.7302 11.0557C26.7027 12.0707 24.8184 13.2789 23.101 14.6564C17.0067 19.5499 13.0949 26.3404 11.6518 33.6384C10.2088 40.9243 11.2344 48.7056 15.0031 55.629L28.7779 47.9081C26.8697 44.4162 26.3569 40.4652 27.0844 36.7799C27.8119 33.1068 29.7916 29.6752 32.9044 27.1862C33.8227 26.4491 34.7768 25.8329 35.7428 25.3375C36.6254 24.8905 37.496 24.5401 38.3427 24.2743L39.261 27.5124L51.2708 13.871Z" fill="#5C9E31"/>
<path fill-rule="evenodd" clip-rule="evenodd" d="M51.271 13.871L33.167 5.88428L34.0376 8.97747C32.1533 9.52119 30.3763 10.222 28.7304 11.0557C26.858 11.9982 25.093 13.1098 23.4829 14.3543L28.4681 20.9515C28.8139 20.6857 29.3148 20.3232 29.9708 19.8882C30.4359 19.5861 30.9726 19.2599 31.5808 18.9216C37.043 15.9009 43.1612 15.2847 48.7546 16.7225L51.2591 13.871H51.271Z" fill="#5C9E31"/>
<path fill-rule="evenodd" clip-rule="evenodd" d="M34.6099 66.129L52.7139 74.1157L51.8433 71.0225C53.7276 70.4788 55.5046 69.778 57.1504 68.9564C59.1779 67.9414 61.0622 66.7332 62.7796 65.3557C68.8739 60.4622 72.7857 53.6717 74.2288 46.3737C75.6719 39.0878 74.6462 31.3065 70.8775 24.3831L57.1027 32.1039C59.0109 35.5959 59.5237 39.5469 58.7962 43.2322C58.0687 46.9053 56.089 50.3368 52.9762 52.8259C52.0579 53.5629 51.1038 54.1792 50.1378 54.6746C49.2553 55.1216 48.3847 55.472 47.5379 55.7378L46.6196 52.4997L34.6099 66.1411V66.129Z" fill="#FCA701"/>
<path fill-rule="evenodd" clip-rule="evenodd" d="M73.8474 48.0289C73.9905 47.4731 74.1098 46.9294 74.2171 46.3615C75.6602 39.0756 74.6345 31.2943 70.8658 24.3708L63.6743 28.3944L63.722 28.4911C64.4734 29.8806 65.0578 31.258 65.499 32.6355C65.8687 33.7954 66.155 35.0158 66.3458 36.2724L64.0321 36.6349L73.8355 48.0289H73.8474Z" fill="#B1CC33"/>
<path fill-rule="evenodd" clip-rule="evenodd" d="M9.81528 30.1345L0 47.4975L4.05492 46.7967C4.40078 48.8507 4.92553 50.9048 5.60532 52.9105C6.41631 55.3271 7.41811 57.6107 8.61073 59.7252C13.9895 69.331 22.6956 75.8195 32.4393 78.5502C42.1711 81.2809 52.9405 80.2418 62.4219 74.7924C63.2448 74.3212 64.1034 73.7775 64.9979 73.1613C65.7016 72.6779 66.5364 72.0617 67.4666 71.3005L57.711 58.819C57.3651 59.0969 56.8642 59.4594 56.2202 59.9065C55.767 60.2206 55.2303 60.5468 54.6221 60.8972C48.9333 64.1717 42.4693 64.7879 36.6254 63.1567C30.7816 61.5256 25.546 57.6228 22.3259 51.8593C21.5626 50.4819 20.9424 49.1165 20.4773 47.7512C20.0838 46.5913 19.7856 45.383 19.5709 44.1384L21.8846 43.7397L9.81528 30.1587V30.1345Z" fill="#319E42"/>
<path fill-rule="evenodd" clip-rule="evenodd" d="M62.8037 65.3195L57.7112 58.8069C57.3653 59.0848 56.8644 59.4473 56.2204 59.8943C55.7672 60.2085 55.2305 60.5347 54.6223 60.8851C49.0885 64.0629 42.8272 64.7395 37.1146 63.2775L34.5981 66.129L52.7022 74.1158L51.8315 71.0226C53.7159 70.4788 55.4929 69.778 57.1387 68.9564C59.1662 67.9415 61.0505 66.7332 62.7679 65.3557L62.7917 65.3316L62.8037 65.3195Z" fill="#FCA701"/>
<path fill-rule="evenodd" clip-rule="evenodd" d="M11.9145 32.4905C11.8191 32.8771 11.7356 33.2517 11.6641 33.6383C10.221 40.9243 11.2466 48.7056 15.0153 55.629L22.1949 51.6054C21.4913 50.3126 20.9188 49.0197 20.4895 47.7389C20.0959 46.579 19.7977 45.3707 19.5831 44.1262L21.8968 43.7275L11.9145 32.4905Z" fill="#319E42"/>
</g>
<defs>
<clipPath id="clip0_35_838">
<rect width="86" height="80" fill="white"/>
</clipPath>
</defs>
</svg>
